<?xml version="1.0" encoding="utf-8"?>
<!-- Generator: Adobe Illustrator 24.3.0, SVG Export Plug-In . SVG Version: 6.00 Build 0)  -->
<svg version="1.1" id="Layer_1" xmlns="http://www.w3.org/2000/svg" xmlns:xlink="http://www.w3.org/1999/xlink" x="0px" y="0px"
	 viewBox="0 0 430 16.5" style="enable-background:new 0 0 430 16.5;" xml:space="preserve">
<style type="text/css">
	.st0{fill:none;stroke:#808080;stroke-width:0.8536;}
	.st1{fill:#888888;}
	.st2{fill:#FFFFFF;}
	.st3{fill:#ACACAC;}
	.st4{fill:none;stroke:#ACACAC;stroke-width:0.1613;}
	.st5{fill:#6F9E52;}
	.st6{fill:none;stroke:#6F9E52;stroke-width:0.3872;}
	.st7{fill:#F6C719;}
	.st8{fill:none;stroke:#F6C719;stroke-width:0.3872;}
	.st9{fill:#6491B6;}
	.st10{fill:none;stroke:#6491B6;stroke-width:0.3872;}
	.st11{fill:#4D4D4D;}
	.st12{fill:none;stroke:#4D4D4D;stroke-width:0.3872;}
</style>
<line class="st0" x1="-0.1" y1="8.5" x2="429.9" y2="8.5"/>
<path class="st1" d="M212.5,3.2h18.1c0.5,0,1,0.1,1.5,0.3c0.5,0.2,0.9,0.5,1.3,0.8c0.4,0.4,0.6,0.8,0.8,1.3c0.2,0.5,0.3,1,0.3,1.5
	v2.6c0,0.5-0.1,1-0.3,1.5c-0.2,0.5-0.5,0.9-0.8,1.3c-0.4,0.4-0.8,0.6-1.3,0.8c-0.5,0.2-1,0.3-1.5,0.3h-18.1c-0.5,0-1-0.1-1.5-0.3
	s-0.9-0.5-1.3-0.8c-0.4-0.4-0.6-0.8-0.8-1.3c-0.2-0.5-0.3-1-0.3-1.5V7.1c0-0.5,0.1-1,0.3-1.5c0.2-0.5,0.5-0.9,0.8-1.3
	c0.4-0.4,0.8-0.6,1.3-0.8C211.5,3.3,212,3.2,212.5,3.2z"/>
<path class="st2" d="M81.8,0h128.1c0.5,0,1,0.1,1.5,0.3s0.9,0.5,1.3,0.8s0.6,0.8,0.8,1.3c0.2,0.5,0.3,1,0.3,1.5v9
	c0,0.5-0.1,1-0.3,1.5c-0.2,0.5-0.5,0.9-0.8,1.3s-0.8,0.6-1.3,0.8c-0.5,0.2-1,0.3-1.5,0.3H81.8c-0.5,0-1-0.1-1.5-0.3
	c-0.5-0.2-0.9-0.5-1.3-0.8s-0.6-0.8-0.8-1.3c-0.2-0.5-0.3-1-0.3-1.5v-9c0-0.5,0.1-1,0.3-1.5c0.2-0.5,0.5-0.9,0.8-1.3
	s0.8-0.6,1.3-0.8S81.3,0,81.8,0z"/>
<rect x="78" y="8.4" class="st3" width="133.9" height="0.6"/>
<rect x="78" y="8.4" class="st4" width="133.9" height="0.6"/>
<rect x="78" y="5.2" class="st5" width="10.1" height="6.5"/>
<rect x="78" y="5.2" class="st6" width="10.1" height="6.5"/>
<rect x="88.1" y="3.9" class="st7" width="1.3" height="9"/>
<rect x="88.1" y="3.9" class="st8" width="1.3" height="9"/>
<polygon class="st7" points="90.1,5.2 89.4,1.3 89.4,15.5 90.1,11.6 "/>
<polygon class="st8" points="90.1,5.2 89.4,1.3 89.4,15.5 90.1,11.6 "/>
<rect x="90.1" y="5.2" class="st5" width="7.4" height="6.5"/>
<rect x="90.1" y="5.2" class="st6" width="7.4" height="6.5"/>
<rect x="97.5" y="3.9" class="st7" width="2" height="9"/>
<rect x="97.5" y="3.9" class="st8" width="2" height="9"/>
<polygon class="st7" points="100.2,5.2 99.5,1.3 99.5,15.5 100.2,11.6 "/>
<polygon class="st8" points="100.2,5.2 99.5,1.3 99.5,15.5 100.2,11.6 "/>
<rect x="100.2" y="5.2" class="st5" width="2.7" height="6.5"/>
<rect x="100.2" y="5.2" class="st6" width="2.7" height="6.5"/>
<rect x="102.9" y="3.9" class="st7" width="2" height="9"/>
<rect x="102.9" y="3.9" class="st8" width="2" height="9"/>
<polygon class="st7" points="105.5,5.2 104.9,1.3 104.9,15.5 105.5,11.6 "/>
<polygon class="st8" points="105.5,5.2 104.9,1.3 104.9,15.5 105.5,11.6 "/>
<rect x="105.5" y="5.2" class="st5" width="2.7" height="6.5"/>
<rect x="105.5" y="5.2" class="st6" width="2.7" height="6.5"/>
<rect x="108.2" y="3.9" class="st7" width="4" height="9"/>
<rect x="108.2" y="3.9" class="st8" width="4" height="9"/>
<polygon class="st7" points="112.9,5.2 112.3,1.3 112.3,15.5 112.9,11.6 "/>
<polygon class="st8" points="112.9,5.2 112.3,1.3 112.3,15.5 112.9,11.6 "/>
<rect x="112.9" y="5.2" class="st5" width="6.1" height="6.5"/>
<rect x="112.9" y="5.2" class="st6" width="6.1" height="6.5"/>
<rect x="119" y="3.9" class="st7" width="4.7" height="9"/>
<rect x="119" y="3.9" class="st8" width="4.7" height="9"/>
<polygon class="st7" points="124.4,5.2 123.7,1.3 123.7,15.5 124.4,11.6 "/>
<polygon class="st8" points="124.4,5.2 123.7,1.3 123.7,15.5 124.4,11.6 "/>
<rect x="124.4" y="5.2" class="st5" width="8.1" height="6.5"/>
<rect x="124.4" y="5.2" class="st6" width="8.1" height="6.5"/>
<rect x="132.4" y="3.2" class="st9" width="4.7" height="10.3"/>
<rect x="132.4" y="3.2" class="st10" width="4.7" height="10.3"/>
<rect x="137.2" y="5.2" class="st5" width="9.4" height="6.5"/>
<rect x="137.2" y="5.2" class="st6" width="9.4" height="6.5"/>
<rect x="146.6" y="3.9" class="st7" width="2" height="9"/>
<rect x="146.6" y="3.9" class="st8" width="2" height="9"/>
<polygon class="st7" points="149.3,5.2 148.6,1.3 148.6,15.5 149.3,11.6 "/>
<polygon class="st8" points="149.3,5.2 148.6,1.3 148.6,15.5 149.3,11.6 "/>
<rect x="149.3" y="5.2" class="st5" width="3.4" height="6.5"/>
<rect x="149.3" y="5.2" class="st6" width="3.4" height="6.5"/>
<rect x="152.6" y="3.9" class="st7" width="2" height="9"/>
<rect x="152.6" y="3.9" class="st8" width="2" height="9"/>
<polygon class="st7" points="155.3,5.2 154.6,1.3 154.6,15.5 155.3,11.6 "/>
<polygon class="st8" points="155.3,5.2 154.6,1.3 154.6,15.5 155.3,11.6 "/>
<rect x="155.3" y="5.2" class="st5" width="4" height="6.5"/>
<rect x="155.3" y="5.2" class="st6" width="4" height="6.5"/>
<rect x="159.3" y="3.9" class="st7" width="3.4" height="9"/>
<rect x="159.3" y="3.9" class="st8" width="3.4" height="9"/>
<polygon class="st7" points="163.4,5.2 162.7,1.3 162.7,15.5 163.4,11.6 "/>
<polygon class="st8" points="163.4,5.2 162.7,1.3 162.7,15.5 163.4,11.6 "/>
<rect x="163.4" y="5.2" class="st5" width="6.7" height="6.5"/>
<rect x="163.4" y="5.2" class="st6" width="6.7" height="6.5"/>
<rect x="170.1" y="3.9" class="st7" width="4" height="9"/>
<rect x="170.1" y="3.9" class="st8" width="4" height="9"/>
<polygon class="st7" points="174.8,5.2 174.1,1.3 174.1,15.5 174.8,11.6 "/>
<polygon class="st8" points="174.8,5.2 174.1,1.3 174.1,15.5 174.8,11.6 "/>
<rect x="174.8" y="5.2" class="st5" width="1.3" height="6.5"/>
<rect x="174.8" y="5.2" class="st6" width="1.3" height="6.5"/>
<rect x="176.2" y="3.2" class="st9" width="3.4" height="10.3"/>
<rect x="176.2" y="3.2" class="st10" width="3.4" height="10.3"/>
<rect x="179.5" y="5.2" class="st5" width="0.7" height="6.5"/>
<rect x="179.5" y="5.2" class="st6" width="0.7" height="6.5"/>
<rect x="182.2" y="5.2" class="st5" width="2" height="6.5"/>
<rect x="182.2" y="5.2" class="st6" width="2" height="6.5"/>
<rect x="184.2" y="3.9" class="st7" width="4.7" height="9"/>
<rect x="184.2" y="3.9" class="st8" width="4.7" height="9"/>
<polygon class="st7" points="189.6,5.2 188.9,1.3 188.9,15.5 189.6,11.6 "/>
<polygon class="st8" points="189.6,5.2 188.9,1.3 188.9,15.5 189.6,11.6 "/>
<rect x="189.6" y="5.2" class="st5" width="3.4" height="6.5"/>
<rect x="189.6" y="5.2" class="st6" width="3.4" height="6.5"/>
<rect x="193" y="3.9" class="st7" width="6.7" height="9"/>
<rect x="193" y="3.9" class="st8" width="6.7" height="9"/>
<polygon class="st7" points="200.4,5.2 199.7,1.3 199.7,15.5 200.4,11.6 "/>
<polygon class="st8" points="200.4,5.2 199.7,1.3 199.7,15.5 200.4,11.6 "/>
<rect x="200.4" y="5.2" class="st5" width="1.3" height="6.5"/>
<rect x="200.4" y="5.2" class="st6" width="1.3" height="6.5"/>
<rect x="201.7" y="3.2" class="st9" width="10.1" height="10.3"/>
<rect x="201.7" y="3.2" class="st10" width="10.1" height="10.3"/>
<rect x="211.8" y="3.2" class="st11" width="0.7" height="10.3"/>
<rect x="211.8" y="3.2" class="st12" width="0.7" height="10.3"/>
<polygon class="st2" points="217,11.1 217,10.5 218.2,10.5 218.2,6.1 217,6.4 217,5.8 218.9,5.4 218.9,10.5 220,10.5 220,11.1 "/>
<path class="st2" d="M221.7,11.1v-0.7c0.5,0.2,1,0.3,1.3,0.3c0.4,0,0.6-0.1,0.9-0.3c0.2-0.2,0.3-0.5,0.3-0.8c0-0.8-0.6-1.2-1.7-1.2
	h-0.3V7.9l0.3,0c1,0,1.6-0.4,1.6-1.1c0-0.6-0.3-0.9-1-0.9c-0.4,0-0.8,0.1-1.2,0.3V5.6c0.4-0.1,0.9-0.2,1.3-0.2
	c1.1,0,1.7,0.4,1.7,1.3c0,0.7-0.4,1.1-1.2,1.4c0.9,0.2,1.4,0.7,1.4,1.5c0,0.5-0.2,0.9-0.5,1.2s-0.8,0.4-1.4,0.4
	C222.6,11.2,222.2,11.2,221.7,11.1z"/>
<polygon class="st2" points="227.1,11.1 227.1,10.5 228.2,10.5 228.2,6.1 227.1,6.4 227.1,5.8 228.9,5.4 228.9,10.5 230.1,10.5 
	230.1,11.1 "/>
</svg>
