<?xml version="1.0" encoding="utf-8"?>
<!-- Generator: Adobe Illustrator 24.3.0, SVG Export Plug-In . SVG Version: 6.00 Build 0)  -->
<svg version="1.1" id="Layer_1" xmlns="http://www.w3.org/2000/svg" xmlns:xlink="http://www.w3.org/1999/xlink" x="0px" y="0px"
	 viewBox="0 0 430 18.2" style="enable-background:new 0 0 430 18.2;" xml:space="preserve">
<style type="text/css">
	.st0{fill:none;stroke:#808080;stroke-width:0.8536;}
	.st1{fill:#888888;}
	.st2{fill:#CCCCCC;}
	.st3{fill:#6F9E52;}
	.st4{fill:none;stroke:#6F9E52;stroke-width:0.3872;}
	.st5{fill:#6491B6;}
	.st6{fill:none;stroke:#6491B6;stroke-width:0.3872;}
	.st7{fill:#FFFFFF;}
</style>
<line class="st0" x1="-0.1" y1="8.5" x2="429.9" y2="8.5"/>
<g>
	<path class="st1" d="M375.9,3.7h9c0.5,0,1,0.1,1.5,0.3c0.5,0.2,0.9,0.5,1.3,0.8c0.4,0.4,0.6,0.8,0.8,1.3c0.2,0.5,0.3,1,0.3,1.5v2.6
		c0,0.5-0.1,1-0.3,1.5c-0.2,0.5-0.5,0.9-0.8,1.3c-0.4,0.4-0.8,0.6-1.3,0.8c-0.5,0.2-1,0.3-1.5,0.3h-9c-0.5,0-1-0.1-1.5-0.3
		c-0.5-0.2-0.9-0.5-1.3-0.8c-0.4-0.4-0.6-0.8-0.8-1.3c-0.2-0.5-0.3-1-0.3-1.5V7.6c0-0.5,0.1-1,0.3-1.5c0.2-0.5,0.5-0.9,0.8-1.3
		c0.4-0.4,0.8-0.6,1.3-0.8C374.9,3.8,375.4,3.7,375.9,3.7z"/>
	<path class="st2" d="M334,0.5h39.3c0.5,0,1,0.1,1.5,0.3c0.5,0.2,0.9,0.5,1.3,0.8c0.4,0.4,0.6,0.8,0.8,1.3c0.2,0.5,0.3,1,0.3,1.5v9
		c0,0.5-0.1,1-0.3,1.5c-0.2,0.5-0.5,0.9-0.8,1.3s-0.8,0.6-1.3,0.8c-0.5,0.2-1,0.3-1.5,0.3H334c-0.5,0-1-0.1-1.5-0.3
		c-0.5-0.2-0.9-0.5-1.3-0.8s-0.6-0.8-0.8-1.3c-0.2-0.5-0.3-1-0.3-1.5v-9c0-0.5,0.1-1,0.3-1.5c0.2-0.5,0.5-0.9,0.8-1.3
		c0.4-0.4,0.8-0.6,1.3-0.8C333,0.6,333.5,0.5,334,0.5z"/>
	<rect x="330.2" y="5.6" class="st3" width="2.7" height="6.5"/>
	<rect x="330.2" y="5.6" class="st4" width="2.7" height="6.5"/>
	<rect x="332.9" y="3.7" class="st5" width="6.1" height="10.3"/>
	<rect x="332.9" y="3.7" class="st6" width="6.1" height="10.3"/>
	<rect x="338.9" y="5.6" class="st3" width="4" height="6.5"/>
	<rect x="338.9" y="5.6" class="st4" width="4" height="6.5"/>
	<rect x="343" y="3.7" class="st5" width="3.4" height="10.3"/>
	<rect x="343" y="3.7" class="st6" width="3.4" height="10.3"/>
	<rect x="346.3" y="5.6" class="st3" width="9.4" height="6.5"/>
	<rect x="346.3" y="5.6" class="st4" width="9.4" height="6.5"/>
	<rect x="355.7" y="3.7" class="st5" width="4.7" height="10.3"/>
	<rect x="355.7" y="3.7" class="st6" width="4.7" height="10.3"/>
	<rect x="360.4" y="5.6" class="st3" width="4" height="6.5"/>
	<rect x="360.4" y="5.6" class="st4" width="4" height="6.5"/>
	<rect x="364.5" y="3.7" class="st5" width="8.7" height="10.3"/>
	<rect x="364.5" y="3.7" class="st6" width="8.7" height="10.3"/>
	<rect x="373.2" y="5.6" class="st3" width="2.7" height="6.5"/>
	<rect x="373.2" y="5.6" class="st4" width="2.7" height="6.5"/>
</g>
<path class="st7" d="M381,11.6v-0.7c0.4,0.1,0.7,0.2,1.1,0.2c0.4,0,0.7-0.1,0.9-0.3c0.2-0.2,0.3-0.5,0.3-0.9c0-0.8-0.6-1.3-1.7-1.3
	c-0.1,0-0.3,0-0.4,0V6h2.8v0.7h-2.2v1.5c0.7,0,1.3,0.2,1.7,0.5c0.4,0.3,0.6,0.8,0.6,1.4c0,0.5-0.2,1-0.6,1.3
	c-0.4,0.3-0.9,0.5-1.5,0.5C381.7,11.7,381.3,11.7,381,11.6z"/>
</svg>
