<?xml version="1.0" encoding="utf-8"?>
<!-- Generator: Adobe Illustrator 24.3.0, SVG Export Plug-In . SVG Version: 6.00 Build 0)  -->
<svg version="1.1" id="Layer_1" xmlns="http://www.w3.org/2000/svg" xmlns:xlink="http://www.w3.org/1999/xlink" x="0px" y="0px"
	 viewBox="0 0 430 14.2" style="enable-background:new 0 0 430 14.2;" xml:space="preserve">
<style type="text/css">
	.st0{fill:none;stroke:#808080;stroke-width:0.8536;}
	.st1{fill:#ACACAC;}
	.st2{fill:none;stroke:#ACACAC;stroke-width:0.1613;}
	.st3{fill:#6F9E52;}
	.st4{fill:none;stroke:#6F9E52;stroke-width:0.3872;}
	.st5{fill:#F6C719;}
	.st6{fill:none;stroke:#F6C719;stroke-width:0.3872;}
	.st7{fill:#6491B6;}
	.st8{fill:none;stroke:#6491B6;stroke-width:0.3872;}
	.st9{fill:#C0C0C0;}
</style>
<line class="st0" x1="0" y1="7.1" x2="430" y2="7.1"/>
<rect x="100" y="6.8" class="st1" width="133.9" height="0.6"/>
<rect x="100" y="6.8" class="st2" width="133.9" height="0.6"/>
<g>
	<rect x="100" y="3.9" class="st3" width="10.1" height="6.5"/>
	<rect x="100" y="3.9" class="st4" width="10.1" height="6.5"/>
	<rect x="110.1" y="2.6" class="st5" width="1.3" height="9"/>
	<rect x="110.1" y="2.6" class="st6" width="1.3" height="9"/>
	<polygon class="st5" points="112.1,3.9 111.4,0 111.4,14.2 112.1,10.4 	"/>
	<polygon class="st6" points="112.1,3.9 111.4,0 111.4,14.2 112.1,10.4 	"/>
	<rect x="112.1" y="3.9" class="st3" width="7.4" height="6.5"/>
	<rect x="112.1" y="3.9" class="st4" width="7.4" height="6.5"/>
	<rect x="119.5" y="2.6" class="st5" width="2" height="9"/>
	<rect x="119.5" y="2.6" class="st6" width="2" height="9"/>
	<polygon class="st5" points="122.2,3.9 121.5,0 121.5,14.2 122.2,10.4 	"/>
	<polygon class="st6" points="122.2,3.9 121.5,0 121.5,14.2 122.2,10.4 	"/>
	<rect x="122.2" y="3.9" class="st3" width="2.7" height="6.5"/>
	<rect x="122.2" y="3.9" class="st4" width="2.7" height="6.5"/>
	<rect x="124.9" y="2.6" class="st5" width="2" height="9"/>
	<rect x="124.9" y="2.6" class="st6" width="2" height="9"/>
	<polygon class="st5" points="127.6,3.9 126.9,0 126.9,14.2 127.6,10.4 	"/>
	<polygon class="st6" points="127.6,3.9 126.9,0 126.9,14.2 127.6,10.4 	"/>
	<rect x="127.6" y="3.9" class="st3" width="2.7" height="6.5"/>
	<rect x="127.6" y="3.9" class="st4" width="2.7" height="6.5"/>
	<rect x="130.3" y="2.6" class="st5" width="4" height="9"/>
	<rect x="130.3" y="2.6" class="st6" width="4" height="9"/>
	<polygon class="st5" points="135,3.9 134.3,0 134.3,14.2 135,10.4 	"/>
	<polygon class="st6" points="135,3.9 134.3,0 134.3,14.2 135,10.4 	"/>
	<rect x="135" y="3.9" class="st3" width="6.1" height="6.5"/>
	<rect x="135" y="3.9" class="st4" width="6.1" height="6.5"/>
	<rect x="141" y="2.6" class="st5" width="4.7" height="9"/>
	<rect x="141" y="2.6" class="st6" width="4.7" height="9"/>
	<polygon class="st5" points="146.4,3.9 145.7,0 145.7,14.2 146.4,10.4 	"/>
	<polygon class="st6" points="146.4,3.9 145.7,0 145.7,14.2 146.4,10.4 	"/>
	<rect x="146.4" y="3.9" class="st3" width="8.1" height="6.5"/>
	<rect x="146.4" y="3.9" class="st4" width="8.1" height="6.5"/>
	<rect x="154.5" y="2" class="st7" width="4.7" height="10.3"/>
	<rect x="154.5" y="2" class="st8" width="4.7" height="10.3"/>
	<rect x="159.2" y="3.9" class="st3" width="9.4" height="6.5"/>
	<rect x="159.2" y="3.9" class="st4" width="9.4" height="6.5"/>
	<rect x="168.6" y="2.6" class="st5" width="2" height="9"/>
	<rect x="168.6" y="2.6" class="st6" width="2" height="9"/>
	<polygon class="st5" points="171.3,3.9 170.6,0 170.6,14.2 171.3,10.4 	"/>
	<polygon class="st6" points="171.3,3.9 170.6,0 170.6,14.2 171.3,10.4 	"/>
	<rect x="171.3" y="3.9" class="st3" width="3.4" height="6.5"/>
	<rect x="171.3" y="3.9" class="st4" width="3.4" height="6.5"/>
	<rect x="174.7" y="2.6" class="st5" width="2" height="9"/>
	<rect x="174.7" y="2.6" class="st6" width="2" height="9"/>
	<polygon class="st5" points="177.3,3.9 176.7,0 176.7,14.2 177.3,10.4 	"/>
	<polygon class="st6" points="177.3,3.9 176.7,0 176.7,14.2 177.3,10.4 	"/>
	<rect x="177.3" y="3.9" class="st3" width="4" height="6.5"/>
	<rect x="177.3" y="3.9" class="st4" width="4" height="6.5"/>
	<rect x="181.4" y="2.6" class="st5" width="3.4" height="9"/>
	<rect x="181.4" y="2.6" class="st6" width="3.4" height="9"/>
	<polygon class="st5" points="185.4,3.9 184.7,0 184.7,14.2 185.4,10.4 	"/>
	<polygon class="st6" points="185.4,3.9 184.7,0 184.7,14.2 185.4,10.4 	"/>
	<rect x="185.4" y="3.9" class="st3" width="6.7" height="6.5"/>
	<rect x="185.4" y="3.9" class="st4" width="6.7" height="6.5"/>
	<rect x="192.1" y="2.6" class="st5" width="4" height="9"/>
	<rect x="192.1" y="2.6" class="st6" width="4" height="9"/>
	<polygon class="st5" points="196.8,3.9 196.2,0 196.2,14.2 196.8,10.4 	"/>
	<polygon class="st6" points="196.8,3.9 196.2,0 196.2,14.2 196.8,10.4 	"/>
	<rect x="196.8" y="3.9" class="st3" width="1.3" height="6.5"/>
	<rect x="196.8" y="3.9" class="st4" width="1.3" height="6.5"/>
	<rect x="198.2" y="2" class="st7" width="3.4" height="10.3"/>
	<rect x="198.2" y="2" class="st8" width="3.4" height="10.3"/>
	<rect x="201.6" y="3.9" class="st3" width="0.7" height="6.5"/>
	<rect x="201.6" y="3.9" class="st4" width="0.7" height="6.5"/>
	<rect x="204.2" y="3.9" class="st3" width="2" height="6.5"/>
	<rect x="204.2" y="3.9" class="st4" width="2" height="6.5"/>
	<rect x="206.3" y="2.6" class="st5" width="4.7" height="9"/>
	<rect x="206.3" y="2.6" class="st6" width="4.7" height="9"/>
	<polygon class="st5" points="211.6,3.9 211,0 211,14.2 211.6,10.4 	"/>
	<polygon class="st6" points="211.6,3.9 211,0 211,14.2 211.6,10.4 	"/>
	<rect x="211.6" y="3.9" class="st3" width="3.4" height="6.5"/>
	<rect x="211.6" y="3.9" class="st4" width="3.4" height="6.5"/>
	<rect x="215" y="2.6" class="st5" width="6.7" height="9"/>
	<rect x="215" y="2.6" class="st6" width="6.7" height="9"/>
	<polygon class="st5" points="222.4,3.9 221.7,0 221.7,14.2 222.4,10.4 	"/>
	<polygon class="st6" points="222.4,3.9 221.7,0 221.7,14.2 222.4,10.4 	"/>
	<rect x="222.4" y="3.9" class="st3" width="1.3" height="6.5"/>
	<rect x="222.4" y="3.9" class="st4" width="1.3" height="6.5"/>
	<rect x="223.7" y="2" class="st7" width="10.1" height="10.3"/>
	<rect x="223.7" y="2" class="st8" width="10.1" height="10.3"/>
</g>
<g>
	<rect x="329.7" y="3.9" class="st9" width="2.7" height="6.5"/>
	<rect x="329.7" y="3.9" class="st9" width="2.7" height="6.5"/>
	<rect x="332.4" y="2" class="st9" width="6.1" height="10.3"/>
	<rect x="332.4" y="2" class="st9" width="6.1" height="10.3"/>
	<rect x="338.4" y="3.9" class="st9" width="4" height="6.5"/>
	<rect x="338.4" y="3.9" class="st9" width="4" height="6.5"/>
	<rect x="342.5" y="2" class="st9" width="3.4" height="10.3"/>
	<rect x="342.5" y="2" class="st9" width="3.4" height="10.3"/>
	<rect x="345.8" y="3.9" class="st9" width="9.4" height="6.5"/>
	<rect x="345.8" y="3.9" class="st9" width="9.4" height="6.5"/>
	<rect x="355.2" y="2" class="st9" width="4.7" height="10.3"/>
	<rect x="355.2" y="2" class="st9" width="4.7" height="10.3"/>
	<rect x="359.9" y="3.9" class="st9" width="4" height="6.5"/>
	<rect x="359.9" y="3.9" class="st9" width="4" height="6.5"/>
	<rect x="364" y="2" class="st9" width="8.7" height="10.3"/>
	<rect x="364" y="2" class="st9" width="8.7" height="10.3"/>
	<rect x="372.7" y="3.9" class="st9" width="2.7" height="6.5"/>
	<rect x="372.7" y="3.9" class="st9" width="2.7" height="6.5"/>
</g>
<g>
	<rect x="238.2" y="3.9" class="st9" width="2" height="6.5"/>
	<rect x="238.2" y="3.9" class="st9" width="2" height="6.5"/>
	<rect x="240.2" y="2.6" class="st9" width="4" height="9"/>
	<rect x="240.2" y="2.6" class="st9" width="4" height="9"/>
	<polygon class="st9" points="244.9,3.9 244.2,0 244.2,14.2 244.9,10.4 	"/>
	<polygon class="st9" points="244.9,3.9 244.2,0 244.2,14.2 244.9,10.4 	"/>
	<rect x="244.9" y="2" class="st9" width="12.1" height="10.3"/>
	<rect x="244.9" y="2" class="st9" width="12.1" height="10.3"/>
	<rect x="257" y="3.9" class="st9" width="2" height="6.5"/>
	<rect x="257" y="3.9" class="st9" width="2" height="6.5"/>
	<rect x="259" y="2" class="st9" width="9.4" height="10.3"/>
	<rect x="259" y="2" class="st9" width="9.4" height="10.3"/>
	<rect x="268.4" y="3.9" class="st9" width="1.3" height="6.5"/>
	<rect x="268.4" y="3.9" class="st9" width="1.3" height="6.5"/>
</g>
<g>
	<rect x="8.8" y="3.9" class="st9" width="2.7" height="6.5"/>
	<rect x="8.8" y="3.9" class="st9" width="2.7" height="6.5"/>
	<rect x="11.4" y="2" class="st9" width="5.4" height="10.3"/>
	<rect x="11.4" y="2" class="st9" width="5.4" height="10.3"/>
	<rect x="16.8" y="3.9" class="st9" width="2" height="6.5"/>
	<rect x="16.8" y="3.9" class="st9" width="2" height="6.5"/>
</g>
</svg>
